<svg width="124" height="43" viewBox="0 0 124 43" fill="none" xmlns="http://www.w3.org/2000/svg">
<path fill-rule="evenodd" clip-rule="evenodd" d="M15.5686 36.178C14.8978 40.0593 13.0734 42 10.0953 42C8.45869 42 6.9428 41.4974 5.54765 40.4921C4.17933 39.4869 3.07931 37.9511 2.24759 35.8848C1.41586 33.8185 1 31.2775 1 28.2618C1 22.5934 1.87197 17.7906 3.61591 13.8534C5.38667 9.88831 7.7477 6.92845 10.699 4.97382C13.6771 2.99127 16.9503 2 20.5187 2C23.0407 2 25.1737 2.46073 26.9176 3.3822C28.6884 4.30366 30.0164 5.56021 30.9018 7.15183C31.542 8.24928 31.9576 9.44987 32.1485 10.7536C32.2103 11.1757 32.2486 11.6086 32.2633 12.0524C32.2679 12.1909 32.2701 12.3305 32.2701 12.4712C32.2701 12.8764 32.2529 13.2759 32.2185 13.6698C32.0514 15.5827 31.4784 17.3612 30.4994 19.0052C29.3189 20.9878 27.6018 22.6073 25.3481 23.8639C23.0944 25.1204 20.4114 25.8604 17.2991 26.0838L15.5686 36.178ZM18.1543 27.0136L16.554 36.3483C16.2003 38.3949 15.5221 40.0634 14.4258 41.2295C13.3013 42.4256 11.8243 43 10.0953 43C8.23782 43 6.51928 42.4248 4.96307 41.3035L4.95558 41.2981C3.39736 40.1533 2.19991 38.4444 1.31992 36.2582C0.426763 34.0393 0 31.3629 0 28.2618C0 22.4959 0.886301 17.5467 2.70159 13.4484L2.70282 13.4456C4.53322 9.34702 7.00419 6.22175 10.1458 4.14075C13.2874 2.04966 16.753 1 20.5187 1C23.1581 1 25.46 1.48176 27.3819 2.49654C29.3045 3.49757 30.7816 4.88279 31.7707 6.65677C32.2692 7.51299 32.6417 8.42276 32.8907 9.38282C33.0372 9.20499 33.2007 9.0358 33.3811 8.87578C34.3329 8.0272 35.5021 7.6178 36.8225 7.6178C37.9869 7.6178 39.0327 7.91541 39.8687 8.59637C40.7573 9.3201 41.1628 10.3388 41.1628 11.5079C41.1628 12.8511 40.7339 14.0213 39.8093 14.9096L39.8016 14.917L39.7938 14.9242C38.8734 15.7715 37.687 16.1518 36.3396 16.1518C35.0731 16.1518 33.9372 15.8548 33.1186 15.0841L33.1093 15.0753L33.1002 15.0662C33.0824 15.0486 33.0649 15.0309 33.0476 15.013C32.7612 16.603 32.1985 18.1063 31.3586 19.5169C30.0777 21.668 28.2239 23.4054 25.835 24.7373C23.6263 25.9688 21.0588 26.7196 18.1543 27.0136ZM33.2335 13.5192C33.3716 13.8369 33.5618 14.1158 33.8042 14.356C34.3676 14.8866 35.2127 15.1518 36.3396 15.1518C37.4933 15.1518 38.4189 14.8307 39.1165 14.1885C39.814 13.5183 40.1628 12.6248 40.1628 11.5079C40.1628 10.5864 39.8543 9.87434 39.2372 9.37173C38.6201 8.86911 37.8152 8.6178 36.8225 8.6178C35.7225 8.6178 34.7969 8.95288 34.0456 9.62304C33.6414 9.98139 33.35 10.3919 33.1713 10.8546C33.0298 11.2211 32.959 11.6204 32.959 12.0524C32.959 12.1965 32.9652 12.3361 32.9774 12.4712C33.0125 12.8579 33.0979 13.2072 33.2335 13.5192ZM9.27366 25.4619C9.00517 25.3351 8.80953 25.1794 8.68674 24.9948C8.44527 24.6038 8.32454 24.1152 8.32454 23.5288C8.32454 22.9145 8.48552 22.4258 8.80748 22.0628C9.15627 21.6998 9.62579 21.5183 10.216 21.5183C10.4843 21.5183 10.6856 21.5323 10.8197 21.5602C11.4636 21.6719 11.96 21.7417 12.3088 21.7696C12.6576 19.5916 13.1539 16.6736 13.7978 13.0157C13.9588 12.0663 14.321 11.3962 14.8844 11.0052C15.4747 10.5864 16.1588 10.377 16.9369 10.377C17.8223 10.377 18.4528 10.5585 18.8284 10.9215C19.2309 11.2565 19.4321 11.801 19.4321 12.555C19.4321 13.0017 19.4053 13.3647 19.3516 13.644L18.0235 21.7696C18.3823 21.7223 18.7293 21.6654 19.0647 21.5989C23.8707 20.6461 26.2737 17.7292 26.2737 12.8482C26.2737 11.0052 25.6834 9.51134 24.5029 8.36649C23.3492 7.19372 21.5516 6.60733 19.1101 6.60733C16.3467 6.60733 13.932 7.51483 11.8661 9.32984C9.82701 11.1449 8.24405 13.6719 7.1172 16.911C6.01718 20.1222 5.46716 23.7941 5.46716 27.9267C5.46716 29.6579 5.62814 31.1937 5.9501 32.534C6.29889 33.8743 6.72817 34.9215 7.23793 35.6754C7.77453 36.4014 8.2843 36.7644 8.76723 36.7644C9.43798 36.7644 9.94774 35.801 10.2965 33.8743L11.6246 25.9581C11.479 25.9348 11.3449 25.9134 11.2221 25.8939C10.9841 25.856 10.789 25.8252 10.6369 25.8016L10.4843 26.7109C10.3576 26.7437 10.2518 26.7426 10.2484 26.7426C10.2183 26.743 10.1948 26.7419 10.1847 26.7414C10.1633 26.7403 10.1474 26.7387 10.1437 26.7383C10.1343 26.7374 10.1303 26.7368 10.1373 26.7377C10.1647 26.7413 10.231 26.7509 10.3465 26.7686C10.384 26.7743 10.4256 26.7808 10.4714 26.7879L9.31139 33.7025C9.14345 34.6281 8.95128 35.2292 8.76873 35.5742C8.73308 35.6415 8.70275 35.6908 8.67836 35.7262C8.65703 35.7141 8.63189 35.6983 8.60276 35.6776C8.4651 35.5795 8.2799 35.4001 8.05473 35.098C7.63811 34.4755 7.2502 33.5565 6.92025 32.2913C6.62208 31.0461 6.46716 29.5942 6.46716 27.9267C6.46716 23.8822 7.00548 20.3238 8.06244 17.2374C9.14687 14.1211 10.647 11.7546 12.5285 10.079C14.4104 8.42658 16.5893 7.60733 19.1101 7.60733C21.4127 7.60733 22.8988 8.16181 23.79 9.06777L23.7983 9.07616L23.8067 9.08436C24.7687 10.0173 25.2737 11.2399 25.2737 12.8482C25.2737 15.2825 24.6361 17.0624 23.477 18.3158C22.5228 19.3476 21.1358 20.1088 19.2378 20.54L20.3364 13.8181C20.4047 13.455 20.4321 13.0272 20.4321 12.555C20.4321 11.6512 20.192 10.7736 19.4963 10.1767C18.8417 9.56368 17.9 9.37696 16.9369 9.37696C15.9697 9.37696 15.0812 9.64073 14.3099 10.1867C13.4524 10.7839 12.9999 11.743 12.8124 12.8453C12.2581 15.9943 11.8126 18.5982 11.4761 20.6555C11.3312 20.6327 11.174 20.6067 11.0042 20.5773C10.7703 20.531 10.4932 20.5183 10.216 20.5183C9.40458 20.5183 8.65633 20.7768 8.08639 21.37L8.07257 21.3844L8.05934 21.3993C7.53546 21.9899 7.32454 22.7372 7.32454 23.5288C7.32454 24.2502 7.47338 24.9333 7.83596 25.5203L7.84481 25.5346L7.85413 25.5486C8.33603 26.2731 9.22345 26.5845 10.0854 26.734L10.2736 25.747C10.2674 25.7462 10.2619 25.7455 10.2571 25.7449C10.257 25.7449 10.2571 25.7449 10.2571 25.7449C10.2259 25.741 10.2256 25.7423 10.2563 25.7487C9.86069 25.6801 9.53315 25.5845 9.27366 25.4619ZM8.60758 35.8089C8.60749 35.8082 8.6117 35.8041 8.6205 35.7986C8.61208 35.8069 8.60768 35.8096 8.60758 35.8089ZM8.76948 35.7644C8.77089 35.7645 8.77161 35.7646 8.77164 35.7646L8.76948 35.7644ZM31.343 36.2419L31.3391 36.2354C30.435 34.743 30.0273 32.8404 30.0273 30.6073C30.0273 29.2809 30.1823 27.6207 30.4812 25.6413L30.4828 25.6303C30.8098 23.617 31.2196 21.738 31.7136 19.9948C31.9725 19.0393 32.3632 18.1833 33.0033 17.6503C33.6733 17.0925 34.6037 16.9162 35.5749 16.9162C36.3439 16.9162 37.0983 17.044 37.6844 17.4506C38.3367 17.9033 38.6274 18.5911 38.6274 19.3403C38.6274 20.1589 38.3466 21.8864 37.8432 24.3956L37.8415 24.4041C37.1946 27.49 36.8969 29.4707 36.8969 30.4398C36.8969 31.2176 37.0006 31.6845 37.1202 31.9334C37.1404 31.9755 37.157 31.9975 37.1654 32.0073C37.1697 32.0123 37.1726 32.0149 37.1739 32.0161C37.1752 32.0172 37.1759 32.0177 37.1764 32.018C37.1769 32.0183 37.1783 32.0191 37.1813 32.0204C37.1843 32.0216 37.19 32.0237 37.199 32.026C37.217 32.0307 37.2509 32.0366 37.3055 32.0366C37.3101 32.0366 37.4067 32.0324 37.6199 31.9092C37.8282 31.7887 38.0954 31.5848 38.4226 31.2695C38.6965 31.0054 39.0125 30.6743 39.3712 30.2742C39.3421 29.9186 39.3276 29.5549 39.3276 29.1832C39.3276 26.794 39.7816 24.6521 40.7224 22.7855C41.6459 20.9533 42.8658 19.5002 44.3971 18.469C45.9137 17.4477 47.541 16.9162 49.2619 16.9162C50.9555 16.9162 52.3924 17.4535 53.4253 18.6286C54.4504 19.736 54.9303 21.1486 54.9303 22.7749C54.9303 24.0891 54.6446 25.2715 54.0183 26.2713C53.3915 27.3162 52.4529 27.9633 51.2339 27.9633C50.5576 27.9633 49.9086 27.7943 49.371 27.3747L49.3542 27.3616L49.338 27.3477C48.7845 26.8764 48.5436 26.2293 48.5436 25.5393C48.5436 25.2557 48.5821 24.9601 48.6462 24.6603C48.7 24.4082 48.7425 24.216 48.7725 24.091L48.7812 24.0549L48.7925 24.0196C48.9015 23.6792 48.9461 23.3921 48.9461 23.1518C48.9461 23.0903 48.9409 23.0479 48.9358 23.021C48.6756 23.0221 48.3501 23.1353 47.9472 23.5756L47.9389 23.5846L47.9305 23.5934C47.5259 24.0145 47.1612 24.6373 46.8714 25.5171C46.587 26.3804 46.4387 27.3482 46.4387 28.4293C46.4387 29.9339 46.7571 30.8761 47.2218 31.4316C47.658 31.953 48.3541 32.288 49.5034 32.288C50.3711 32.288 51.3738 31.9906 52.5289 31.3005C53.3097 30.826 54.0967 30.1874 54.8875 29.3734C54.9881 26.1 55.4912 22.9656 56.4003 19.9732C56.687 19.0134 57.1836 18.2045 57.9597 17.6776C58.7493 17.1317 59.752 16.9162 60.859 16.9162C61.4183 16.9162 62.054 16.977 62.5311 17.2874C63.1574 17.6948 63.3078 18.3804 63.3078 18.9215C63.3078 19.2527 63.2387 19.7007 63.1374 20.2068C63.0646 20.5705 62.9679 20.9981 62.8482 21.4878C63.9826 19.9375 65.1396 18.7594 66.3324 18.0273L66.3419 18.0214C67.5095 17.3227 68.6674 16.9162 69.7933 16.9162C70.8298 16.9162 71.7884 17.188 72.4763 17.904C73.1571 18.6125 73.4092 19.5869 73.4092 20.6387C73.4092 21.1067 73.2686 22.0822 73.0324 23.4479L73.0308 23.4571L73.0291 23.4662C72.8074 24.6196 72.7251 25.2096 72.7251 25.3717C72.7251 25.562 72.7417 25.698 72.7628 25.7901C72.7646 25.7979 72.7664 25.8053 72.7681 25.8123C72.9691 24.7388 73.2838 23.7266 73.716 22.7788L73.7188 22.7725C74.5586 20.9643 75.7087 19.5201 77.1852 18.4836C78.6705 17.4127 80.3495 16.8743 82.1918 16.8743C83.9582 16.8743 85.527 17.3448 86.8467 18.3236C88.1273 19.2457 89.0836 20.4692 89.7138 21.9685C90.3317 23.4383 90.6371 25.0089 90.6371 26.6702C90.6371 28.1211 90.4651 29.4885 90.1147 30.7669C91.5489 28.9185 92.6171 27.4146 93.332 26.2475C93.7673 25.4732 94.2876 24.4317 94.8943 23.1142C95.5055 21.759 96.1037 20.3615 96.6889 18.9218L96.6917 18.9152C97.0229 18.1168 97.5547 17.4779 98.291 17.0511C99.0139 16.632 99.8674 16.4555 100.795 16.4555C101.55 16.4555 102.276 16.5167 102.792 16.761C103.068 16.8918 103.336 17.0914 103.531 17.386C103.728 17.6843 103.807 18.0152 103.807 18.3351C103.807 18.6593 103.714 19.0454 103.605 19.4144C103.48 19.838 103.31 20.2551 103.099 20.6655C102.65 21.6012 102.479 22.2922 102.479 22.7749C102.479 22.978 102.544 23.2701 102.754 23.6687C103.018 24.1143 103.427 24.6972 103.997 25.4254L104.007 25.4381L104.016 25.4512C104.886 26.6388 105.56 27.6856 106.022 28.5845C106.455 29.3587 106.711 30.1946 106.795 31.0816C107.066 30.8581 107.351 30.5976 107.651 30.298C108.909 28.657 109.86 27.3052 110.513 26.2366C110.968 25.4738 111.431 24.5526 111.9 23.467L111.904 23.4578L111.908 23.4487C112.412 22.346 113.064 20.8355 113.867 18.913C114.199 18.1156 114.73 17.4775 115.466 17.0511C116.189 16.632 117.042 16.4555 117.969 16.4555C118.724 16.4555 119.45 16.5167 119.967 16.761C120.243 16.8918 120.511 17.0914 120.705 17.386C120.902 17.6843 120.982 18.0152 120.982 18.3351C120.982 18.6593 120.889 19.0454 120.78 19.4144C120.654 19.838 120.485 20.2551 120.273 20.6655C119.825 21.6012 119.654 22.2922 119.654 22.7749C119.654 22.978 119.719 23.2701 119.929 23.6687C120.192 24.1143 120.601 24.6972 121.171 25.4254L121.181 25.4381L121.191 25.4512C122.06 26.6388 122.735 27.6856 123.197 28.5845C123.735 29.5472 124 30.6051 124 31.7382C124 33.0683 123.695 34.338 123.09 35.5355C122.505 36.7189 121.668 37.6879 120.586 38.4275C119.471 39.1906 118.198 39.5654 116.802 39.5654C115.257 39.5654 113.912 39.1938 112.917 38.3064L112.91 38.3004L112.904 38.2943C112.014 37.4716 111.496 36.4647 111.496 35.2984C111.496 34.9897 111.531 34.692 111.6 34.4068C110.549 35.5794 109.49 36.4661 108.42 37.0232L108.412 37.0274C107.123 37.6832 105.585 38.0365 103.832 38.1265C102.629 39.0855 101.214 39.5654 99.6276 39.5654C98.0818 39.5654 96.737 39.1938 95.7423 38.3064L95.7355 38.3004L95.7289 38.2943C94.8396 37.4716 94.3214 36.4647 94.3214 35.2984C94.3214 34.9141 94.3755 34.5467 94.4819 34.1993C94.152 34.5682 93.8119 34.93 93.4617 35.2845C92.8503 35.9189 92.0977 36.3403 91.2164 36.3403C90.5157 36.3403 89.8862 36.0747 89.4169 35.5374L89.4028 35.5213L89.3895 35.5046C89.0162 35.0384 88.8193 34.4949 88.7765 33.9119C88.0068 35.1889 87.0389 36.2497 85.8684 37.078L85.8647 37.0807C84.3813 38.1203 82.7186 38.644 80.904 38.644C79.1423 38.644 77.5759 38.1901 76.2557 37.2414L76.2445 37.2333L76.2334 37.2249C74.9869 36.2756 74.0499 35.0428 73.4223 33.5498C73.2577 33.1584 73.1153 32.7598 72.995 32.3543C72.4145 32.4983 71.8162 32.5707 71.2019 32.5707C69.6064 32.5707 68.229 32.1445 67.2337 31.1456L67.2273 31.1392L67.221 31.1326C66.2786 30.1519 65.8555 28.8626 65.8555 27.3822C65.8555 26.9654 65.89 26.5496 65.9587 26.1353C65.9147 26.1945 65.8694 26.2572 65.8226 26.3234C65.2341 27.1659 64.6225 28.3239 63.9947 29.8212C63.3737 31.3023 62.8676 32.8675 62.4773 34.5182C62.1792 35.842 61.7912 36.945 61.2206 37.6189C60.5848 38.3741 59.6417 38.644 58.6455 38.644C57.9416 38.644 57.2842 38.4467 56.727 38.0171C56.2087 37.6175 55.8385 37.0647 55.5793 36.4294C55.1307 36.7241 54.6641 36.9938 54.1796 37.2383L54.1737 37.2413C52.3176 38.1626 50.4757 38.644 48.6582 38.644C45.8249 38.644 43.4864 37.8094 41.7797 36.0332L41.7734 36.0266L41.7673 36.02C41.7511 36.0025 41.7351 35.9851 41.7191 35.9675C39.8433 37.684 37.9435 38.644 36.0176 38.644C33.9904 38.644 32.365 37.8728 31.347 36.2483L31.343 36.2419ZM41.0876 35.1901C41.3274 34.9689 41.5688 34.7329 41.8118 34.4818C42.0022 34.7575 42.211 35.0208 42.4381 35.2718C42.4588 35.2947 42.4797 35.3176 42.5008 35.3403C43.9764 36.8761 46.0289 37.644 48.6582 37.644C50.2949 37.644 51.9851 37.2112 53.7291 36.3455C54.2688 36.0732 54.7848 35.7671 55.2772 35.4273C55.5806 35.2179 55.875 34.9957 56.1605 34.7607C56.2343 35.1634 56.3222 35.5194 56.4241 35.8286C56.4398 35.8764 56.4559 35.9231 56.4723 35.9686C56.9016 37.0855 57.626 37.644 58.6455 37.644C59.4773 37.644 60.0809 37.4206 60.4566 36.9738C60.859 36.4991 61.2078 35.6056 61.5029 34.2932C61.9054 32.5899 62.4285 30.9703 63.0725 29.4346C63.7164 27.8988 64.3603 26.6702 65.0042 25.7487C65.6749 24.7993 66.2115 24.3246 66.614 24.3246C66.9091 24.3246 67.0567 24.548 67.0567 24.9948C67.0567 25.1902 67.0298 25.5672 66.9762 26.1257C66.8957 26.5445 66.8555 26.9633 66.8555 27.3822C66.8555 28.6667 67.2177 29.6859 67.9421 30.4398C68.6933 31.1937 69.7799 31.5707 71.2019 31.5707C71.7334 31.5707 72.25 31.5085 72.7517 31.3843C73.0766 31.3038 73.3952 31.1973 73.7076 31.0647C73.7723 31.3975 73.8522 31.7251 73.9471 32.0475C74.0586 32.4263 74.1909 32.7979 74.3441 33.1623C74.9075 34.5026 75.7393 35.5916 76.8393 36.4293C77.9661 37.2391 79.321 37.644 80.904 37.644C82.5138 37.644 83.976 37.1832 85.2907 36.2618C86.6322 35.3124 87.692 34.014 88.47 32.3665C89.2481 30.6911 89.6371 28.7923 89.6371 26.6702C89.6371 25.1344 89.3554 23.6963 88.792 22.356C88.2286 21.0157 87.3834 19.9407 86.2566 19.1309C85.1297 18.2932 83.7748 17.8743 82.1918 17.8743C80.5552 17.8743 79.0796 18.349 77.7649 19.2984C76.4503 20.2199 75.4039 21.5183 74.6258 23.1937C74.3346 23.8324 74.0998 24.5068 73.9215 25.2169C73.8104 25.6591 73.7212 26.1151 73.654 26.585C73.3169 26.7535 73.0094 26.8377 72.7312 26.8377C72.6907 26.8377 72.6515 26.8359 72.6134 26.8323C72.0212 26.7769 71.7251 26.2901 71.7251 25.3717C71.7251 25.0925 71.8324 24.3944 72.047 23.2775C72.2885 21.8813 72.4092 21.0017 72.4092 20.6387C72.4092 18.8237 71.5373 17.9162 69.7933 17.9162C68.9079 17.9162 67.9286 18.2373 66.8555 18.8796C65.8091 19.5218 64.7359 20.5969 63.6359 22.1047C63.1139 22.8203 62.616 23.6365 62.1423 24.5532C62.0616 24.7095 61.9815 24.8688 61.9022 25.0309C61.4662 25.9218 61.0514 26.9011 60.6578 27.9686C60.7651 26.74 60.8992 25.7068 61.0602 24.8691C61.1003 24.6608 61.1436 24.4438 61.1903 24.2182C61.3313 23.5367 61.5026 22.7763 61.7041 21.9372C62.1066 20.3735 62.3078 19.3682 62.3078 18.9215C62.3078 18.5305 62.2005 18.2653 61.9859 18.1257C61.7712 17.986 61.3956 17.9162 60.859 17.9162C59.8663 17.9162 59.0882 18.1117 58.5248 18.5026C57.9882 18.8656 57.5992 19.452 57.3577 20.2618C56.5885 22.7932 56.1173 25.4336 55.9441 28.183C55.9108 28.7124 55.8885 29.2459 55.8772 29.7834C55.6055 30.0759 55.3325 30.3506 55.0581 30.6073C54.9952 30.6663 54.9321 30.7243 54.869 30.7814C54.2671 31.3257 53.659 31.7842 53.0449 32.1571C51.7839 32.911 50.6034 33.288 49.5034 33.288C46.7936 33.288 45.4387 31.6684 45.4387 28.4293C45.4387 27.2565 45.5996 26.1815 45.9216 25.2042C46.2436 24.2269 46.6728 23.459 47.2094 22.9005C47.746 22.3141 48.3229 22.0209 48.94 22.0209C49.2619 22.0209 49.5034 22.1187 49.6644 22.3141C49.8522 22.5096 49.9461 22.7888 49.9461 23.1518C49.9461 23.5148 49.879 23.9058 49.7449 24.3246C49.718 24.4363 49.6778 24.6178 49.6241 24.8691C49.5705 25.1204 49.5436 25.3438 49.5436 25.5393C49.5436 25.986 49.6912 26.3351 49.9863 26.5864C50.3083 26.8377 50.7241 26.9633 51.2339 26.9633C52.0388 26.9633 52.6827 26.5585 53.1657 25.7487C53.6754 24.9389 53.9303 23.9476 53.9303 22.7749C53.9303 21.3508 53.5144 20.192 52.6827 19.2984C51.8778 18.377 50.7376 17.9162 49.2619 17.9162C47.7594 17.9162 46.324 18.377 44.9557 19.2984C43.5874 20.2199 42.474 21.5323 41.6154 23.2356C40.7592 24.9343 40.3299 26.9108 40.3276 29.165C40.3276 29.1711 40.3276 29.1772 40.3276 29.1832C40.3276 29.6771 40.355 30.1526 40.4097 30.6096C40.0971 30.9673 39.8095 31.2829 39.5471 31.5566C39.3951 31.715 39.2516 31.8593 39.1165 31.9895C38.3921 32.6876 37.7884 33.0366 37.3055 33.0366C36.7957 33.0366 36.4335 32.8133 36.2188 32.3665C36.0042 31.9197 35.8969 31.2775 35.8969 30.4398C35.8969 29.3508 36.2188 27.2705 36.8628 24.199C37.3725 21.6579 37.6274 20.0384 37.6274 19.3403C37.6274 18.3909 36.9433 17.9162 35.5749 17.9162C34.6896 17.9162 34.0456 18.0838 33.6432 18.4188C33.2407 18.7539 32.9188 19.3682 32.6773 20.2618C32.1944 21.9651 31.7919 23.808 31.47 25.7906C31.1748 27.7452 31.0273 29.3508 31.0273 30.6073C31.0273 32.7295 31.4163 34.4328 32.1944 35.7173C32.9993 37.0017 34.2737 37.644 36.0176 37.644C37.6232 37.644 39.3132 36.826 41.0876 35.1901ZM78.5339 28.066C78.531 28.1987 78.5296 28.3338 78.5296 28.4712C78.5296 30.0628 78.7979 31.2356 79.3345 31.9895C79.8711 32.7435 80.5418 33.1204 81.3467 33.1204C82.2589 33.1204 83.0236 32.6038 83.6406 31.5707C84.2846 30.5375 84.6065 29.0297 84.6065 27.0471C84.6065 25.5113 84.3382 24.3525 83.8016 23.5707C83.265 22.7888 82.6211 22.3979 81.8699 22.3979C80.904 22.3979 80.0991 22.9145 79.4552 23.9476C79.1745 24.4049 78.9577 24.9661 78.8046 25.6313C78.7622 25.816 78.7246 26.0087 78.692 26.2094C78.6014 26.7665 78.5487 27.3854 78.5339 28.066ZM80.3058 24.4735C79.8325 25.2463 79.5296 26.5328 79.5296 28.4712C79.5296 29.9885 79.7925 30.9085 80.1492 31.4097C80.5305 31.9454 80.9173 32.1204 81.3467 32.1204C81.7957 32.1204 82.2801 31.8984 82.7821 31.0579L82.787 31.0498L82.792 31.0417C83.2929 30.238 83.6065 28.9486 83.6065 27.0471C83.6065 25.5992 83.3485 24.6776 82.9771 24.1365C82.5721 23.5463 82.205 23.3979 81.8699 23.3979C81.3416 23.3979 80.8209 23.6484 80.3058 24.4735ZM90.331 32.1152C89.9554 32.5899 89.7676 33.1065 89.7676 33.6649C89.7676 34.1396 89.9018 34.5445 90.1701 34.8796C90.4383 35.1867 90.7871 35.3403 91.2164 35.3403C91.753 35.3403 92.2628 35.089 92.7457 34.5864C93.7116 33.6091 94.597 32.5759 95.4019 31.4869C96.0657 30.6177 96.7295 29.5707 97.3934 28.3457C97.5613 28.0359 97.7291 27.7147 97.897 27.3822C98.1152 27.6416 98.3423 27.9293 98.5786 28.2453C98.7491 28.4734 98.9244 28.7162 99.1044 28.9738C99.5337 29.5602 99.8824 30.1745 100.151 30.8168C100.303 31.149 100.42 31.4924 100.501 31.8471C100.577 32.178 100.621 32.5187 100.634 32.8691L99.5471 32.7435C99.091 32.6597 98.6885 32.6178 98.3397 32.6178C97.347 32.6178 96.5958 32.8831 96.086 33.4136C95.5763 33.9442 95.3214 34.5724 95.3214 35.2984C95.3214 36.1361 95.6836 36.89 96.408 37.5602C97.1592 38.2304 98.2324 38.5654 99.6276 38.5654C101.103 38.5654 102.378 38.0908 103.451 37.1414C105.132 37.0891 106.555 36.7927 107.72 36.2521C107.8 36.2146 107.88 36.176 107.958 36.1361C108.102 36.0614 108.246 35.9793 108.391 35.8899C108.911 35.5692 109.44 35.1539 109.979 34.6439C109.979 34.6437 109.979 34.6434 109.98 34.6431C110.582 34.0725 111.196 33.3835 111.822 32.5759C111.946 32.4121 112.056 32.2366 112.15 32.0493C112.295 31.8635 112.437 31.6761 112.577 31.4869C112.913 31.0463 113.25 30.5599 113.586 30.0279C113.914 29.5104 114.241 28.9497 114.568 28.3457C114.736 28.0359 114.904 27.7147 115.072 27.3822C115.29 27.6416 115.517 27.9293 115.753 28.2453C115.924 28.4734 116.099 28.7162 116.279 28.9738C116.708 29.5602 117.057 30.1745 117.325 30.8168C117.478 31.149 117.595 31.4924 117.676 31.8471C117.751 32.178 117.795 32.5187 117.808 32.8691L116.722 32.7435C116.266 32.6597 115.863 32.6178 115.514 32.6178C114.522 32.6178 113.771 32.8831 113.261 33.4136C112.751 33.9442 112.496 34.5724 112.496 35.2984C112.496 36.1361 112.858 36.89 113.583 37.5602C114.334 38.2304 115.407 38.5654 116.802 38.5654C118.01 38.5654 119.083 38.2443 120.022 37.6021C120.961 36.9599 121.685 36.1222 122.195 35.089C122.732 34.0279 123 32.911 123 31.7382C123 30.7609 122.772 29.8674 122.316 29.0576C121.887 28.2199 121.243 27.2147 120.384 26.0419C119.794 25.288 119.351 24.6597 119.056 24.1571C118.788 23.6544 118.654 23.1937 118.654 22.7749C118.654 22.0768 118.895 21.2251 119.378 20.2199C119.566 19.8569 119.713 19.4939 119.821 19.1309C119.928 18.7679 119.982 18.5026 119.982 18.3351C119.982 18.0279 119.834 17.8045 119.539 17.6649C119.244 17.5253 118.721 17.4555 117.969 17.4555C116.36 17.4555 115.3 18.0698 114.79 19.2984C113.985 21.2251 113.328 22.7469 112.818 23.8639C112.335 24.9808 111.852 25.9442 111.369 26.7539C111.297 26.8718 111.222 26.9927 111.143 27.1167C110.867 27.5509 110.551 28.023 110.194 28.5329C110.192 28.5348 110.191 28.5368 110.189 28.5387C109.678 29.2682 109.083 30.075 108.404 30.959C108.254 31.1106 108.105 31.2543 107.959 31.3902C107.959 31.3902 107.959 31.3901 107.959 31.3902C107.736 31.5968 107.518 31.7854 107.304 31.9557C107.304 31.956 107.303 31.9564 107.303 31.9567C107.133 32.0924 106.966 32.2166 106.801 32.3291C106.548 32.5028 106.302 32.6489 106.063 32.7675C105.956 32.8209 105.849 32.8687 105.745 32.911C105.797 32.4226 105.824 32.0397 105.825 31.7623C105.825 31.7542 105.825 31.7461 105.825 31.7382C105.825 30.7609 105.597 29.8674 105.141 29.0576C104.712 28.2199 104.068 27.2147 103.209 26.0419C102.619 25.288 102.176 24.6597 101.881 24.1571C101.613 23.6544 101.479 23.1937 101.479 22.7749C101.479 22.0768 101.72 21.2251 102.203 20.2199C102.391 19.8569 102.539 19.4939 102.646 19.1309C102.753 18.7679 102.807 18.5026 102.807 18.3351C102.807 18.0279 102.659 17.8045 102.364 17.6649C102.069 17.5253 101.546 17.4555 100.795 17.4555C99.1849 17.4555 98.1251 18.0698 97.6153 19.2984C97.0251 20.7504 96.4214 22.1606 95.8043 23.5288C95.1872 24.8691 94.6506 25.9442 94.1945 26.7539C93.4433 27.9825 92.3298 29.5462 90.8542 31.445L90.331 32.1152ZM116.602 31.7091C116.217 31.6499 115.853 31.6178 115.514 31.6178C114.73 31.6178 113.998 31.7603 113.372 32.0932C113.373 32.0913 113.375 32.0894 113.376 32.0875C114.001 31.2683 114.618 30.311 115.228 29.2203C115.304 29.3259 115.381 29.4347 115.459 29.5466L115.466 29.5556L115.472 29.5645C115.857 30.0901 116.166 30.6359 116.403 31.2022L116.41 31.2184L116.417 31.2343C116.488 31.3894 116.55 31.5476 116.602 31.7091ZM99.4271 31.7091C99.042 31.6499 98.6783 31.6178 98.3397 31.6178C97.5553 31.6178 96.823 31.7603 96.1973 32.0932C96.1987 32.0913 96.2001 32.0894 96.2015 32.0875C96.8266 31.2683 97.4434 30.311 98.0534 29.2203C98.1294 29.3259 98.2065 29.4347 98.2847 29.5466L98.291 29.5556L98.2975 29.5645C98.6823 30.0901 98.9914 30.6359 99.228 31.2022L99.2348 31.2184L99.2421 31.2343C99.3133 31.3894 99.375 31.5476 99.4271 31.7091Z" fill="#E16565" fill-opacity="0.6"/>
<path fill-rule="evenodd" clip-rule="evenodd" d="M16.554 35.3483C16.2003 37.3949 15.5221 39.0634 14.4258 40.2295C13.3013 41.4256 11.8243 42 10.0953 42C8.23782 42 6.51928 41.4248 4.96307 40.3035L4.95558 40.2981C3.39736 39.1533 2.19991 37.4444 1.31992 35.2582C0.426763 33.0393 0 30.3629 0 27.2618C0 21.4959 0.886301 16.5467 2.70159 12.4484L2.70282 12.4456C4.53322 8.34702 7.00419 5.22175 10.1458 3.14075C13.2874 1.04966 16.753 0 20.5187 0C23.1581 0 25.4601 0.481763 27.382 1.49654C29.3045 2.49758 30.7816 3.88279 31.7707 5.65677C32.2692 6.51299 32.6417 7.42275 32.8907 8.38282C33.0372 8.20499 33.2007 8.0358 33.3811 7.87578C34.3329 7.02719 35.5021 6.6178 36.8225 6.6178C37.9869 6.6178 39.0327 6.91541 39.8687 7.59637C40.7573 8.3201 41.1628 9.33883 41.1628 10.5079C41.1628 11.8511 40.7339 13.0213 39.8093 13.9096L39.8016 13.917L39.7938 13.9242C38.8734 14.7715 37.687 15.1518 36.3396 15.1518C35.0731 15.1518 33.9372 14.8548 33.1186 14.0841L33.1093 14.0753L33.1002 14.0662C33.0824 14.0486 33.0649 14.0309 33.0476 14.013C32.7612 15.603 32.1985 17.1063 31.3586 18.5169C30.0777 20.668 28.2239 22.4054 25.835 23.7373C23.6263 24.9688 21.0588 25.7196 18.1543 26.0136L16.554 35.3483ZM17.2991 25.0838L15.5686 35.178C14.8978 39.0593 13.0734 41 10.0953 41C8.45869 41 6.9428 40.4974 5.54765 39.4921C4.17933 38.4869 3.07931 36.9511 2.24759 34.8848C1.41586 32.8185 1 30.2775 1 27.2618C1 21.5934 1.87197 16.7906 3.61591 12.8534C5.38667 8.88831 7.7477 5.92845 10.699 3.97382C13.6771 1.99127 16.9503 1 20.5187 1C23.0407 1 25.1737 1.46073 26.9176 2.3822C28.6884 3.30366 30.0164 4.56021 30.9018 6.15183C31.542 7.24927 31.9576 8.44987 32.1485 9.75362C32.2103 10.1757 32.2486 10.6086 32.2633 11.0524C32.2679 11.1909 32.2701 11.3305 32.2701 11.4712C32.2701 11.8764 32.2529 12.2759 32.2185 12.6698C32.0514 14.5827 31.4784 16.3612 30.4994 18.0052C29.3189 19.9878 27.6018 21.6073 25.3481 22.8639C23.0944 24.1204 20.4114 24.8604 17.2991 25.0838ZM33.2335 12.5192C33.3716 12.8369 33.5618 13.1158 33.8042 13.356C34.3676 13.8866 35.2127 14.1518 36.3396 14.1518C37.4933 14.1518 38.4189 13.8307 39.1165 13.1885C39.814 12.5183 40.1628 11.6248 40.1628 10.5079C40.1628 9.58639 39.8543 8.87434 39.2372 8.37173C38.6201 7.86911 37.8152 7.6178 36.8225 7.6178C35.7225 7.6178 34.7969 7.95288 34.0456 8.62304C33.6414 8.98139 33.35 9.3919 33.1713 9.85458C33.0298 10.2211 32.959 10.6204 32.959 11.0524C32.959 11.1965 32.9652 11.3361 32.9774 11.4712C33.0125 11.8579 33.0979 12.2072 33.2335 12.5192ZM9.27366 24.4619C9.00517 24.3351 8.80953 24.1794 8.68674 23.9948C8.44527 23.6038 8.32454 23.1152 8.32454 22.5288C8.32454 21.9145 8.48552 21.4258 8.80748 21.0628C9.15627 20.6998 9.62579 20.5183 10.216 20.5183C10.4843 20.5183 10.6856 20.5323 10.8197 20.5602C11.4636 20.6719 11.96 20.7417 12.3088 20.7696C12.6576 18.5916 13.1539 15.6736 13.7978 12.0157C13.9588 11.0663 14.321 10.3962 14.8844 10.0052C15.4747 9.58639 16.1588 9.37696 16.9369 9.37696C17.8223 9.37696 18.4528 9.55846 18.8284 9.92147C19.2309 10.2565 19.4321 10.801 19.4321 11.555C19.4321 12.0017 19.4053 12.3647 19.3516 12.644L18.0235 20.7696C18.3823 20.7223 18.7293 20.6654 19.0647 20.5989C23.8707 19.6461 26.2737 16.7292 26.2737 11.8482C26.2737 10.0052 25.6834 8.51134 24.5029 7.36649C23.3492 6.19372 21.5516 5.60733 19.1101 5.60733C16.3467 5.60733 13.932 6.51483 11.8661 8.32984C9.82701 10.1449 8.24405 12.6719 7.1172 15.911C6.01718 19.1222 5.46716 22.7941 5.46716 26.9267C5.46716 28.6579 5.62814 30.1937 5.9501 31.534C6.29889 32.8743 6.72817 33.9215 7.23793 34.6754C7.77453 35.4014 8.2843 35.7644 8.76723 35.7644C9.43798 35.7644 9.94774 34.801 10.2965 32.8743L11.6246 24.9581C11.479 24.9348 11.3449 24.9134 11.2221 24.8939C10.9841 24.856 10.789 24.8252 10.6369 24.8016L10.4843 25.7109C10.362 25.7425 10.2592 25.7426 10.2491 25.7426C10.219 25.743 10.1948 25.7419 10.1847 25.7414C10.1631 25.7403 10.1471 25.7387 10.1436 25.7383C10.1386 25.7378 10.1351 25.7374 10.1341 25.7373C10.1332 25.7372 10.1341 25.7373 10.1373 25.7377C10.1647 25.7413 10.231 25.7509 10.3465 25.7686C10.384 25.7743 10.4256 25.7808 10.4714 25.7879L9.31139 32.7025C9.14345 33.6281 8.95128 34.2292 8.76874 34.5742C8.73308 34.6415 8.70275 34.6908 8.67835 34.7262C8.65703 34.7141 8.63189 34.6983 8.60276 34.6776C8.4651 34.5795 8.2799 34.4001 8.05473 34.098C7.63811 33.4755 7.2502 32.5565 6.92026 31.2914C6.62208 30.0461 6.46716 28.5943 6.46716 26.9267C6.46716 22.8821 7.00549 19.3238 8.06247 16.2373C9.14691 13.1211 10.6471 10.7545 12.5286 9.07891C14.4104 7.42656 16.5894 6.60733 19.1101 6.60733C21.4127 6.60733 22.8988 7.16181 23.79 8.06777L23.7983 8.07616L23.8067 8.08436C24.7687 9.01729 25.2737 10.2399 25.2737 11.8482C25.2737 14.2825 24.6361 16.0624 23.477 17.3158C22.5228 18.3476 21.1358 19.1088 19.2378 19.54L20.3364 12.818C20.4047 12.455 20.4321 12.0272 20.4321 11.555C20.4321 10.6512 20.192 9.77358 19.4963 9.17668C18.8418 8.56368 17.9 8.37696 16.9369 8.37696C15.9697 8.37696 15.0812 8.64073 14.3099 9.18673C13.4524 9.7839 12.9999 10.743 12.8124 11.8453C12.2581 14.9943 11.8126 17.5982 11.4761 19.6555C11.3311 19.6327 11.1739 19.6066 11.0041 19.5773C10.7703 19.531 10.4932 19.5183 10.216 19.5183C9.40458 19.5183 8.65633 19.7768 8.08639 20.37L8.07257 20.3844L8.05934 20.3993C7.53546 20.9899 7.32454 21.7372 7.32454 22.5288C7.32454 23.2502 7.47338 23.9333 7.83596 24.5203L7.84481 24.5346L7.85413 24.5486C8.33603 25.2731 9.22346 25.5845 10.0854 25.734L10.2736 24.747C10.2674 24.7462 10.2619 24.7455 10.2571 24.7449C10.257 24.7449 10.2571 24.7449 10.2571 24.7449C10.2259 24.741 10.2256 24.7423 10.2563 24.7487C9.8607 24.6801 9.53315 24.5845 9.27366 24.4619ZM8.60758 34.8089C8.60748 34.8082 8.61169 34.8041 8.62049 34.7986C8.61208 34.8069 8.60768 34.8096 8.60758 34.8089ZM8.76948 34.7644C8.77089 34.7645 8.77161 34.7646 8.77164 34.7646L8.76948 34.7644ZM31.343 35.2419L31.3391 35.2354C30.435 33.743 30.0273 31.8404 30.0273 29.6073C30.0273 28.2809 30.1823 26.6207 30.4812 24.6413L30.4828 24.6303C30.8098 22.617 31.2196 20.738 31.7136 18.9948C31.9725 18.0393 32.3632 17.1833 33.0033 16.6503C33.6733 16.0925 34.6037 15.9162 35.5749 15.9162C36.3439 15.9162 37.0983 16.044 37.6844 16.4506C38.3367 16.9033 38.6274 17.5911 38.6274 18.3403C38.6274 19.1589 38.3466 20.8864 37.8432 23.3956L37.8415 23.4041C37.1946 26.49 36.8969 28.4707 36.8969 29.4398C36.8969 30.2176 37.0006 30.6845 37.1202 30.9335C37.1404 30.9755 37.157 30.9975 37.1654 31.0073C37.1697 31.0123 37.1726 31.0149 37.1739 31.0161C37.1752 31.0172 37.1759 31.0177 37.1764 31.018C37.1769 31.0183 37.1783 31.0191 37.1813 31.0204C37.1843 31.0216 37.19 31.0237 37.199 31.026C37.217 31.0307 37.2509 31.0366 37.3055 31.0366C37.3101 31.0366 37.4067 31.0324 37.6199 30.9092C37.8282 30.7887 38.0954 30.5848 38.4226 30.2695C38.6965 30.0054 39.0125 29.6743 39.3712 29.2742C39.3421 28.9186 39.3276 28.5549 39.3276 28.1832C39.3276 25.794 39.7816 23.6521 40.7224 21.7855C41.646 19.9533 42.8658 18.5002 44.3972 17.469C45.9137 16.4477 47.541 15.9162 49.2619 15.9162C50.9555 15.9162 52.3924 16.4535 53.4253 17.6286C54.4504 18.736 54.9303 20.1486 54.9303 21.7749C54.9303 23.0891 54.6446 24.2715 54.0183 25.2713C53.3915 26.3161 52.4529 26.9633 51.2339 26.9633C50.5576 26.9633 49.9086 26.7943 49.371 26.3747L49.3542 26.3616L49.338 26.3478C48.7845 25.8764 48.5436 25.2293 48.5436 24.5393C48.5436 24.2557 48.5821 23.9601 48.6462 23.6603C48.7 23.4082 48.7425 23.216 48.7725 23.091L48.7812 23.0549L48.7925 23.0196C48.9015 22.6792 48.9461 22.3921 48.9461 22.1518C48.9461 22.0903 48.9409 22.0479 48.9358 22.021C48.6756 22.0221 48.3501 22.1353 47.9472 22.5756L47.9389 22.5846L47.9305 22.5934C47.5259 23.0145 47.1612 23.6373 46.8714 24.5171C46.587 25.3804 46.4387 26.3482 46.4387 27.4293C46.4387 28.9339 46.7571 29.8761 47.2218 30.4316C47.658 30.953 48.3541 31.288 49.5034 31.288C50.3711 31.288 51.3738 30.9906 52.5289 30.3005C53.3097 29.826 54.0967 29.1874 54.8875 28.3734C54.9881 25.1 55.4912 21.9656 56.4003 18.9732C56.6869 18.0135 57.1836 17.2047 57.9595 16.6777C58.7492 16.1317 59.7519 15.9162 60.859 15.9162C61.4183 15.9162 62.054 15.977 62.5311 16.2874C63.1574 16.6948 63.3078 17.3804 63.3078 17.9215C63.3078 18.2527 63.2387 18.7007 63.1374 19.2068C63.0646 19.5705 62.9679 19.9981 62.8482 20.4878C63.9826 18.9375 65.1396 17.7594 66.3324 17.0273L66.3419 17.0214C67.5095 16.3227 68.6674 15.9162 69.7933 15.9162C70.8298 15.9162 71.7884 16.188 72.4763 16.904C73.1571 17.6125 73.4092 18.5869 73.4092 19.6387C73.4092 20.1067 73.2686 21.0822 73.0324 22.4479L73.0308 22.4571L73.0291 22.4662C72.8074 23.6196 72.7251 24.2096 72.7251 24.3717C72.7251 24.562 72.7417 24.698 72.7628 24.7901C72.7646 24.7979 72.7664 24.8053 72.7681 24.8123C72.9691 23.7388 73.2838 22.7266 73.716 21.7788L73.7188 21.7725C74.5586 19.9643 75.7087 18.5201 77.1852 17.4836C78.6705 16.4127 80.3495 15.8743 82.1918 15.8743C83.9582 15.8743 85.5271 16.3448 86.8467 17.3236C88.1273 18.2457 89.0836 19.4692 89.7138 20.9685C90.3317 22.4383 90.6371 24.0089 90.6371 25.6702C90.6371 27.1211 90.4651 28.4885 90.1147 29.7669C91.5488 27.9186 92.617 26.4148 93.332 25.2477C93.7672 24.4734 94.2876 23.4318 94.8943 22.1142C95.5055 20.759 96.1037 19.3615 96.6889 17.9218L96.6917 17.9152C97.0229 17.1168 97.5547 16.4779 98.291 16.0511C99.0139 15.632 99.8674 15.4555 100.795 15.4555C101.55 15.4555 102.276 15.5167 102.792 15.761C103.068 15.8918 103.336 16.0914 103.531 16.386C103.728 16.6843 103.807 17.0152 103.807 17.3351C103.807 17.6593 103.714 18.0454 103.605 18.4144C103.48 18.838 103.31 19.2551 103.099 19.6655C102.65 20.6011 102.479 21.2922 102.479 21.7749C102.479 21.978 102.544 22.2701 102.754 22.6685C103.017 23.1142 103.427 23.6971 103.997 24.4254L104.007 24.4381L104.016 24.4512C104.886 25.6387 105.56 26.6854 106.022 27.5843C106.455 28.3586 106.711 29.1945 106.795 30.0816C107.066 29.8581 107.351 29.5976 107.651 29.298C108.909 27.657 109.86 26.3052 110.513 25.2367C110.968 24.4739 111.431 23.5526 111.9 22.467L111.904 22.4578L111.908 22.4487C112.412 21.346 113.064 19.8355 113.867 17.913C114.199 17.1156 114.73 16.4775 115.466 16.0511C116.189 15.632 117.042 15.4555 117.969 15.4555C118.724 15.4555 119.45 15.5167 119.967 15.761C120.243 15.8918 120.511 16.0914 120.705 16.386C120.902 16.6843 120.982 17.0152 120.982 17.3351C120.982 17.6593 120.889 18.0454 120.78 18.4144C120.654 18.838 120.485 19.2551 120.273 19.6655C119.825 20.6011 119.654 21.2922 119.654 21.7749C119.654 21.978 119.719 22.2701 119.929 22.6687C120.192 23.1143 120.601 23.6972 121.171 24.4254L121.181 24.4381L121.191 24.4512C122.06 25.6388 122.735 26.6856 123.197 27.5845C123.735 28.5472 124 29.6051 124 30.7382C124 32.0683 123.695 33.338 123.09 34.5355C122.505 35.7189 121.668 36.6879 120.586 37.4275C119.471 38.1906 118.198 38.5654 116.802 38.5654C115.257 38.5654 113.912 38.1938 112.917 37.3064L112.91 37.3004L112.904 37.2943C112.014 36.4716 111.496 35.4647 111.496 34.2984C111.496 33.9897 111.531 33.692 111.6 33.4068C110.549 34.5794 109.49 35.4661 108.42 36.0232L108.412 36.0274C107.123 36.6832 105.585 37.0365 103.832 37.1265C102.629 38.0855 101.214 38.5654 99.6276 38.5654C98.0818 38.5654 96.737 38.1938 95.7423 37.3064L95.7355 37.3004L95.7289 37.2943C94.8396 36.4716 94.3214 35.4647 94.3214 34.2984C94.3214 33.9141 94.3755 33.5467 94.4819 33.1993C94.152 33.5683 93.812 33.93 93.4617 34.2845C92.8503 34.9189 92.0977 35.3403 91.2164 35.3403C90.5157 35.3403 89.8862 35.0747 89.4169 34.5374L89.4028 34.5213L89.3895 34.5046C89.0162 34.0384 88.8193 33.4949 88.7765 32.9119C88.0068 34.189 87.0389 35.2497 85.8684 36.078L85.8647 36.0807C84.3813 37.1203 82.7186 37.644 80.904 37.644C79.1423 37.644 77.5759 37.1901 76.2557 36.2414L76.2445 36.2333L76.2334 36.2249C74.9869 35.2756 74.0499 34.0428 73.4223 32.5498C73.2577 32.1584 73.1153 31.7598 72.995 31.3543C72.4145 31.4983 71.8162 31.5707 71.2019 31.5707C69.6064 31.5707 68.229 31.1445 67.2337 30.1456L67.2273 30.1392L67.221 30.1326C66.2786 29.1519 65.8555 27.8627 65.8555 26.3822C65.8555 25.9654 65.89 25.5496 65.9587 25.1353C65.9147 25.1946 65.8693 25.2573 65.8225 25.3235C65.2341 26.166 64.6224 27.324 63.9947 28.8212C63.3737 30.3023 62.8676 31.8675 62.4773 33.5182C62.1792 34.842 61.7912 35.945 61.2206 36.6189C60.5848 37.3741 59.6417 37.644 58.6455 37.644C57.9416 37.644 57.2842 37.4467 56.727 37.0171C56.2087 36.6175 55.8385 36.0647 55.5793 35.4294C55.1307 35.7241 54.6641 35.9938 54.1796 36.2383L54.1737 36.2413C52.3176 37.1626 50.4757 37.644 48.6582 37.644C45.8249 37.644 43.4864 36.8094 41.7797 35.0332L41.7734 35.0266L41.7673 35.02C41.7511 35.0025 41.7351 34.9851 41.7191 34.9675C39.8433 36.684 37.9435 37.644 36.0176 37.644C33.9904 37.644 32.365 36.8728 31.347 35.2483L31.343 35.2419ZM41.0876 34.1901C41.3274 33.9689 41.5688 33.7329 41.8118 33.4818C42.0022 33.7575 42.211 34.0208 42.4381 34.2718C42.4588 34.2947 42.4797 34.3176 42.5008 34.3403C43.9764 35.8761 46.0289 36.644 48.6582 36.644C50.2949 36.644 51.9851 36.2112 53.7291 35.3455C54.2688 35.0732 54.7848 34.7671 55.2772 34.4273C55.5806 34.2179 55.875 33.9957 56.1605 33.7607C56.2343 34.1634 56.3222 34.5194 56.4241 34.8286C56.4398 34.8764 56.4559 34.9231 56.4723 34.9686C56.9016 36.0855 57.626 36.644 58.6455 36.644C59.4773 36.644 60.0809 36.4206 60.4566 35.9738C60.859 35.4991 61.2078 34.6056 61.5029 33.2932C61.9054 31.5899 62.4285 29.9703 63.0725 28.4346C63.7164 26.8988 64.3603 25.6702 65.0042 24.7487C65.6749 23.7993 66.2115 23.3246 66.614 23.3246C66.9091 23.3246 67.0567 23.548 67.0567 23.9948C67.0567 24.1902 67.0299 24.5672 66.9762 25.1257C66.8957 25.5445 66.8555 25.9633 66.8555 26.3822C66.8555 27.6667 67.2177 28.6859 67.9421 29.4398C68.6933 30.1937 69.7799 30.5707 71.2019 30.5707C71.7334 30.5707 72.25 30.5085 72.7517 30.3843C73.0766 30.3038 73.3952 30.1973 73.7076 30.0647C73.7723 30.3976 73.8522 30.7251 73.9471 31.0475C74.0586 31.4263 74.1909 31.7979 74.3441 32.1623C74.9076 33.5026 75.7393 34.5916 76.8393 35.4293C77.9661 36.2391 79.3211 36.644 80.904 36.644C82.5138 36.644 83.976 36.1832 85.2907 35.2618C86.6322 34.3124 87.692 33.014 88.47 31.3665C89.2481 29.6911 89.6371 27.7923 89.6371 25.6702C89.6371 24.1344 89.3554 22.6963 88.792 21.356C88.2286 20.0157 87.3834 18.9407 86.2566 18.1309C85.1297 17.2932 83.7748 16.8743 82.1918 16.8743C80.5552 16.8743 79.0796 17.349 77.7649 18.2984C76.4503 19.2199 75.4039 20.5183 74.6258 22.1937C74.3346 22.8324 74.0998 23.5068 73.9215 24.2169C73.8104 24.6591 73.7212 25.1151 73.654 25.585C73.3169 25.7535 73.0094 25.8377 72.7312 25.8377C72.6907 25.8377 72.6515 25.8359 72.6134 25.8323C72.0212 25.7769 71.7251 25.2901 71.7251 24.3717C71.7251 24.0925 71.8324 23.3944 72.047 22.2775C72.2885 20.8813 72.4092 20.0017 72.4092 19.6387C72.4092 17.8237 71.5373 16.9162 69.7933 16.9162C68.9079 16.9162 67.9287 17.2373 66.8555 17.8796C65.8091 18.5218 64.7359 19.5969 63.6359 21.1047C63.1139 21.8203 62.616 22.6365 62.1423 23.5532C62.0616 23.7095 61.9815 23.8688 61.9022 24.0309C61.4662 24.9218 61.0514 25.9011 60.6578 26.9686C60.7651 25.74 60.8992 24.7068 61.0602 23.8691C61.1003 23.6608 61.1436 23.4438 61.1903 23.2182C61.3313 22.5367 61.5026 21.7763 61.7041 20.9372C62.1066 19.3735 62.3078 18.3682 62.3078 17.9215C62.3078 17.5305 62.2005 17.2653 61.9859 17.1257C61.7712 16.986 61.3956 16.9162 60.859 16.9162C59.8663 16.9162 59.0882 17.1117 58.5248 17.5026C57.9882 17.8656 57.5992 18.452 57.3577 19.2618C56.5885 21.7932 56.1173 24.4336 55.9441 27.183C55.9108 27.7124 55.8885 28.2459 55.8772 28.7834C55.6055 29.0759 55.3325 29.3506 55.0581 29.6073C54.9952 29.6663 54.9321 29.7243 54.869 29.7814C54.2671 30.3257 53.659 30.7842 53.0449 31.1571C51.7839 31.911 50.6034 32.288 49.5034 32.288C46.7936 32.288 45.4387 30.6684 45.4387 27.4293C45.4387 26.2565 45.5996 25.1815 45.9216 24.2042C46.2436 23.2269 46.6728 22.459 47.2094 21.9005C47.746 21.3141 48.3229 21.0209 48.94 21.0209C49.2619 21.0209 49.5034 21.1187 49.6644 21.3141C49.8522 21.5096 49.9461 21.7888 49.9461 22.1518C49.9461 22.5148 49.879 22.9058 49.7449 23.3246C49.718 23.4363 49.6778 23.6178 49.6241 23.8691C49.5705 24.1204 49.5436 24.3438 49.5436 24.5393C49.5436 24.986 49.6912 25.3351 49.9863 25.5864C50.3083 25.8377 50.7241 25.9633 51.2339 25.9633C52.0388 25.9633 52.6827 25.5585 53.1657 24.7487C53.6754 23.9389 53.9303 22.9476 53.9303 21.7749C53.9303 20.3508 53.5144 19.192 52.6827 18.2984C51.8778 17.377 50.7376 16.9162 49.2619 16.9162C47.7594 16.9162 46.324 17.377 44.9557 18.2984C43.5874 19.2199 42.474 20.5323 41.6154 22.2356C40.7592 23.9343 40.3299 25.9108 40.3276 28.165C40.3276 28.1711 40.3276 28.1772 40.3276 28.1832C40.3276 28.6772 40.355 29.1526 40.4097 29.6096C40.0971 29.9673 39.8096 30.283 39.5471 30.5566C39.3951 30.715 39.2516 30.8593 39.1165 30.9895C38.3921 31.6876 37.7884 32.0366 37.3055 32.0366C36.7957 32.0366 36.4335 31.8133 36.2188 31.3665C36.0042 30.9197 35.8969 30.2775 35.8969 29.4398C35.8969 28.3508 36.2189 26.2705 36.8628 23.199C37.3725 20.6579 37.6274 19.0384 37.6274 18.3403C37.6274 17.3909 36.9433 16.9162 35.5749 16.9162C34.6896 16.9162 34.0456 17.0838 33.6432 17.4188C33.2407 17.7539 32.9188 18.3682 32.6773 19.2618C32.1944 20.9651 31.7919 22.808 31.47 24.7906C31.1748 26.7452 31.0273 28.3508 31.0273 29.6073C31.0273 31.7295 31.4163 33.4328 32.1944 34.7173C32.9993 36.0017 34.2737 36.644 36.0176 36.644C37.6232 36.644 39.3132 35.826 41.0876 34.1901ZM78.5339 27.066C78.531 27.1987 78.5296 27.3338 78.5296 27.4712C78.5296 29.0628 78.7979 30.2356 79.3345 30.9895C79.8711 31.7435 80.5418 32.1204 81.3467 32.1204C82.2589 32.1204 83.0236 31.6038 83.6406 30.5707C84.2846 29.5375 84.6065 28.0297 84.6065 26.0471C84.6065 24.5113 84.3382 23.3525 83.8016 22.5707C83.265 21.7888 82.6211 21.3979 81.8699 21.3979C80.904 21.3979 80.0991 21.9145 79.4552 22.9476C79.1745 23.4049 78.9577 23.9661 78.8047 24.6313C78.7622 24.816 78.7246 25.0087 78.692 25.2094C78.6014 25.7665 78.5487 26.3854 78.5339 27.066ZM90.331 31.1152C89.9554 31.5899 89.7676 32.1065 89.7676 32.6649C89.7676 33.1396 89.9018 33.5445 90.1701 33.8796C90.4384 34.1867 90.7871 34.3403 91.2164 34.3403C91.753 34.3403 92.2628 34.089 92.7457 33.5864C93.7116 32.6091 94.597 31.5759 95.4019 30.4869C96.0657 29.6177 96.7295 28.5707 97.3934 27.3457C97.5613 27.0359 97.7291 26.7147 97.897 26.3822C98.1152 26.6416 98.3423 26.9293 98.5786 27.2453C98.7491 27.4734 98.9244 27.7162 99.1044 27.9738C99.5337 28.5602 99.8824 29.1745 100.151 29.8168C100.303 30.149 100.42 30.4924 100.501 30.8471C100.577 31.178 100.621 31.5187 100.634 31.8691L99.5471 31.7435C99.091 31.6597 98.6885 31.6178 98.3397 31.6178C97.347 31.6178 96.5958 31.8831 96.086 32.4136C95.5763 32.9442 95.3214 33.5724 95.3214 34.2984C95.3214 35.1361 95.6836 35.89 96.408 36.5602C97.1592 37.2304 98.2324 37.5654 99.6276 37.5654C101.103 37.5654 102.378 37.0908 103.451 36.1414C105.132 36.0891 106.555 35.7927 107.72 35.2521C107.8 35.2146 107.88 35.176 107.958 35.1361C108.102 35.0614 108.246 34.9793 108.391 34.8899C108.911 34.5692 109.44 34.1539 109.979 33.6439C109.979 33.6437 109.979 33.6434 109.98 33.6431C110.582 33.0725 111.196 32.3835 111.822 31.5759C111.946 31.4121 112.056 31.2366 112.15 31.0493C112.295 30.8635 112.437 30.6761 112.577 30.4869C112.913 30.0463 113.25 29.5599 113.586 29.0279C113.914 28.5104 114.241 27.9497 114.568 27.3457C114.736 27.0359 114.904 26.7147 115.072 26.3822C115.29 26.6416 115.517 26.9293 115.753 27.2453C115.924 27.4734 116.099 27.7162 116.279 27.9738C116.708 28.5602 117.057 29.1745 117.325 29.8168C117.478 30.149 117.595 30.4924 117.676 30.8471C117.751 31.178 117.795 31.5187 117.808 31.8691L116.722 31.7435C116.266 31.6597 115.863 31.6178 115.514 31.6178C114.522 31.6178 113.771 31.8831 113.261 32.4136C112.751 32.9442 112.496 33.5724 112.496 34.2984C112.496 35.1361 112.858 35.89 113.583 36.5602C114.334 37.2304 115.407 37.5654 116.802 37.5654C118.01 37.5654 119.083 37.2443 120.022 36.6021C120.961 35.9599 121.685 35.1222 122.195 34.089C122.732 33.0279 123 31.911 123 30.7382C123 29.7609 122.772 28.8674 122.316 28.0576C121.887 27.2199 121.243 26.2147 120.384 25.0419C119.794 24.288 119.351 23.6597 119.056 23.1571C118.788 22.6544 118.654 22.1937 118.654 21.7749C118.654 21.0768 118.895 20.2251 119.378 19.2199C119.566 18.8569 119.713 18.4939 119.821 18.1309C119.928 17.7679 119.982 17.5026 119.982 17.3351C119.982 17.0279 119.834 16.8045 119.539 16.6649C119.244 16.5253 118.721 16.4555 117.969 16.4555C116.36 16.4555 115.3 17.0698 114.79 18.2984C113.985 20.2251 113.328 21.7469 112.818 22.8639C112.335 23.9808 111.852 24.9442 111.369 25.7539C111.297 25.8718 111.222 25.9927 111.143 26.1167C110.867 26.5509 110.551 27.023 110.194 27.5329C110.192 27.5348 110.191 27.5368 110.189 27.5387C109.678 28.2682 109.083 29.075 108.404 29.9591C108.254 30.1106 108.105 30.2543 107.959 30.3902C107.959 30.3902 107.959 30.3901 107.959 30.3902C107.736 30.5968 107.518 30.7854 107.304 30.9557C107.304 30.956 107.303 30.9564 107.303 30.9567C107.133 31.0924 106.966 31.2166 106.801 31.3291C106.548 31.5028 106.302 31.6489 106.063 31.7675C105.956 31.8209 105.849 31.8687 105.745 31.911C105.797 31.4226 105.824 31.0397 105.825 30.7623C105.825 30.7542 105.825 30.7461 105.825 30.7382C105.825 29.7609 105.597 28.8674 105.141 28.0576C104.712 27.2199 104.068 26.2147 103.209 25.0419C102.619 24.288 102.176 23.6597 101.881 23.1571C101.613 22.6544 101.479 22.1937 101.479 21.7749C101.479 21.0768 101.72 20.2251 102.203 19.2199C102.391 18.8569 102.539 18.4939 102.646 18.1309C102.753 17.7679 102.807 17.5026 102.807 17.3351C102.807 17.0279 102.659 16.8045 102.364 16.6649C102.069 16.5253 101.546 16.4555 100.795 16.4555C99.1849 16.4555 98.1251 17.0698 97.6153 18.2984C97.0251 19.7504 96.4214 21.1606 95.8043 22.5288C95.1872 23.8691 94.6506 24.9442 94.1945 25.7539C93.4433 26.9825 92.3298 28.5462 90.8542 30.445L90.331 31.1152ZM116.602 30.7091C116.217 30.6499 115.853 30.6178 115.514 30.6178C114.73 30.6178 113.998 30.7603 113.372 31.0932C113.373 31.0913 113.375 31.0894 113.376 31.0875C114.001 30.2683 114.618 29.311 115.228 28.2203C115.304 28.3259 115.381 28.4347 115.459 28.5466L115.466 28.5556L115.472 28.5645C115.857 29.0901 116.166 29.6359 116.403 30.2022L116.41 30.2184L116.417 30.2343C116.488 30.3894 116.55 30.5476 116.602 30.7091ZM99.4271 30.7091C99.042 30.6499 98.6783 30.6178 98.3397 30.6178C97.5553 30.6178 96.823 30.7603 96.1973 31.0932C96.1986 31.0914 96.1999 31.0896 96.2012 31.0878C96.8264 30.2685 97.4433 29.3111 98.0534 28.2203C98.1294 28.3259 98.2065 28.4347 98.2847 28.5466L98.291 28.5556L98.2975 28.5645C98.6823 29.0901 98.9914 29.6359 99.228 30.2022L99.2348 30.2184L99.2421 30.2343C99.3133 30.3894 99.375 30.5476 99.4271 30.7091ZM82.787 30.0498L82.792 30.0417C83.2929 29.238 83.6065 27.9486 83.6065 26.0471C83.6065 24.5992 83.3485 23.6776 82.9771 23.1365C82.5721 22.5463 82.205 22.3979 81.8699 22.3979C81.3415 22.3979 80.8207 22.6486 80.3055 23.474C79.8324 24.2468 79.5296 25.5332 79.5296 27.4712C79.5296 28.9885 79.7925 29.9085 80.1492 30.4097C80.5305 30.9454 80.9173 31.1204 81.3467 31.1204C81.7958 31.1204 82.2801 30.8984 82.7821 30.0579L82.787 30.0498Z" fill="white"/>
<path d="M32.2702 11.4712C32.2702 13.8447 31.6799 16.0227 30.4994 18.0052C29.3189 19.9878 27.6018 21.6073 25.3481 22.8639C23.0944 24.1204 20.4114 24.8604 17.2991 25.0838L15.5686 35.178C14.8978 39.0593 13.0734 41 10.0953 41C8.45869 41 6.9428 40.4974 5.54765 39.4921C4.17933 38.4869 3.07931 36.9511 2.24759 34.8848C1.41586 32.8185 1 30.2775 1 27.2618C1 21.5934 1.87197 16.7906 3.61591 12.8534C5.38667 8.88831 7.7477 5.92845 10.699 3.97382C13.6771 1.99127 16.9503 1 20.5187 1C23.0407 1 25.1737 1.46073 26.9176 2.3822C28.6884 3.30366 30.0164 4.56021 30.9018 6.15183C31.814 7.71553 32.2702 9.48866 32.2702 11.4712ZM18.0235 20.7696C23.5236 20.0436 26.2737 17.0698 26.2737 11.8482C26.2737 10.0052 25.6834 8.51134 24.5029 7.36649C23.3492 6.19372 21.5516 5.60733 19.1101 5.60733C16.3467 5.60733 13.932 6.51483 11.8661 8.32984C9.82701 10.1449 8.24405 12.6719 7.1172 15.911C6.01718 19.1222 5.46716 22.7941 5.46716 26.9267C5.46716 28.6579 5.62814 30.1937 5.9501 31.534C6.29889 32.8743 6.72817 33.9215 7.23793 34.6754C7.77453 35.4014 8.2843 35.7644 8.76723 35.7644C9.43798 35.7644 9.94774 34.801 10.2965 32.8743L11.6246 24.9581C10.5782 24.7906 10.1221 24.7208 10.2563 24.7487C9.45139 24.6091 8.92821 24.3578 8.68674 23.9948C8.44527 23.6038 8.32454 23.1152 8.32454 22.5288C8.32454 21.9145 8.48552 21.4258 8.80748 21.0628C9.15627 20.6998 9.62579 20.5183 10.216 20.5183C10.4843 20.5183 10.6856 20.5323 10.8197 20.5602C11.4636 20.6719 11.96 20.7417 12.3088 20.7696C12.6576 18.5916 13.1539 15.6736 13.7978 12.0157C13.9588 11.0663 14.321 10.3962 14.8844 10.0052C15.4747 9.58639 16.1588 9.37696 16.9369 9.37696C17.8223 9.37696 18.4528 9.55846 18.8284 9.92147C19.2309 10.2565 19.4321 10.801 19.4321 11.555C19.4321 12.0017 19.4053 12.3647 19.3516 12.644L18.0235 20.7696Z" fill="#4B69FF"/>
<path d="M36.3396 14.1518C35.2127 14.1518 34.3676 13.8866 33.8042 13.356C33.2407 12.7976 32.959 12.0297 32.959 11.0524C32.959 10.075 33.3212 9.26527 34.0456 8.62303C34.7969 7.95288 35.7225 7.6178 36.8225 7.6178C37.8152 7.6178 38.6201 7.86911 39.2372 8.37173C39.8543 8.87434 40.1628 9.58639 40.1628 10.5079C40.1628 11.6248 39.814 12.5183 39.1165 13.1885C38.4189 13.8307 37.4933 14.1518 36.3396 14.1518ZM36.0176 36.644C34.2737 36.644 32.9993 36.0017 32.1944 34.7173C31.4163 33.4328 31.0273 31.7295 31.0273 29.6073C31.0273 28.3508 31.1748 26.7452 31.47 24.7906C31.7919 22.808 32.1944 20.9651 32.6773 19.2618C32.9188 18.3682 33.2407 17.7539 33.6432 17.4188C34.0456 17.0838 34.6896 16.9162 35.5749 16.9162C36.9433 16.9162 37.6274 17.3909 37.6274 18.3403C37.6274 19.0384 37.3725 20.6579 36.8628 23.199C36.2188 26.2705 35.8969 28.3508 35.8969 29.4398C35.8969 30.2775 36.0042 30.9197 36.2188 31.3665C36.4335 31.8133 36.7957 32.0366 37.3055 32.0366C37.7884 32.0366 38.3921 31.6876 39.1165 30.9895C39.8409 30.2914 40.8067 29.1885 42.0141 27.6806C42.336 27.2897 42.6982 27.0942 43.1007 27.0942C43.4495 27.0942 43.7178 27.2618 43.9056 27.5969C44.1202 27.9319 44.2276 28.3927 44.2276 28.9791C44.2276 30.096 43.9727 30.9616 43.4629 31.5759C40.8068 34.9546 38.325 36.644 36.0176 36.644Z" fill="#4B69FF"/>
<path d="M48.6582 36.644C46.0289 36.644 43.9764 35.8761 42.5008 34.3403C41.052 32.7766 40.3276 30.7243 40.3276 28.1832C40.3276 25.9215 40.7569 23.9389 41.6154 22.2356C42.474 20.5323 43.5874 19.2199 44.9557 18.2984C46.324 17.377 47.7594 16.9162 49.2619 16.9162C50.7376 16.9162 51.8778 17.377 52.6827 18.2984C53.5144 19.192 53.9303 20.3508 53.9303 21.7749C53.9303 22.9476 53.6754 23.9389 53.1657 24.7487C52.6827 25.5585 52.0388 25.9633 51.2339 25.9633C50.7241 25.9633 50.3083 25.8377 49.9863 25.5864C49.6912 25.3351 49.5436 24.986 49.5436 24.5393C49.5436 24.3438 49.5705 24.1204 49.6241 23.8691C49.6778 23.6178 49.718 23.4363 49.7449 23.3246C49.879 22.9058 49.9461 22.5148 49.9461 22.1518C49.9461 21.7888 49.8522 21.5096 49.6644 21.3141C49.5034 21.1187 49.2619 21.0209 48.94 21.0209C48.3229 21.0209 47.746 21.3141 47.2094 21.9005C46.6728 22.459 46.2436 23.2269 45.9216 24.2042C45.5996 25.1815 45.4387 26.2565 45.4387 27.4293C45.4387 30.6684 46.7936 32.288 49.5034 32.288C50.6034 32.288 51.7839 31.911 53.0449 31.1571C54.3327 30.3752 55.5938 29.2164 56.8279 27.6806C57.1499 27.2897 57.5121 27.0942 57.9145 27.0942C58.2633 27.0942 58.5316 27.2618 58.7194 27.5969C58.9341 27.9319 59.0414 28.3927 59.0414 28.9791C59.0414 30.0401 58.7865 30.9058 58.2767 31.5759C57.0157 33.1955 55.4998 34.452 53.7291 35.3455C51.9851 36.2112 50.2949 36.644 48.6582 36.644Z" fill="#4B69FF"/>
<path d="M58.6455 36.644C57.626 36.644 56.9016 36.0855 56.4723 34.9686C56.0699 33.8517 55.8687 32.0646 55.8687 29.6073C55.8687 25.9773 56.365 22.5288 57.3577 19.2618C57.5992 18.452 57.9882 17.8656 58.5248 17.5026C59.0882 17.1117 59.8663 16.9162 60.859 16.9162C61.3956 16.9162 61.7712 16.986 61.9859 17.1257C62.2005 17.2653 62.3078 17.5305 62.3078 17.9215C62.3078 18.3682 62.1066 19.3735 61.7041 20.9372C61.4358 22.0541 61.2212 23.0314 61.0602 23.8691C60.8992 24.7068 60.7651 25.74 60.6578 26.9686C61.5432 24.5672 62.5359 22.6126 63.6359 21.1047C64.7359 19.5969 65.8091 18.5218 66.8555 17.8796C67.9286 17.2373 68.9079 16.9162 69.7933 16.9162C71.5373 16.9162 72.4092 17.8237 72.4092 19.6387C72.4092 20.0017 72.2885 20.8813 72.047 22.2775C71.8324 23.3944 71.7251 24.0925 71.7251 24.3717C71.7251 25.349 72.0604 25.8377 72.7312 25.8377C73.4824 25.8377 74.4483 25.2234 75.6288 23.9948C75.9776 23.6318 76.3398 23.4503 76.7154 23.4503C77.0642 23.4503 77.3325 23.6178 77.5203 23.9529C77.7349 24.26 77.8423 24.6789 77.8423 25.2094C77.8423 26.2426 77.574 27.0524 77.0374 27.6387C76.2861 28.4485 75.4008 29.1466 74.3812 29.733C73.3885 30.2914 72.3287 30.5707 71.2019 30.5707C69.7799 30.5707 68.6933 30.1937 67.9421 29.4398C67.2177 28.6859 66.8555 27.6667 66.8555 26.3822C66.8555 25.9633 66.8957 25.5445 66.9762 25.1257C67.0298 24.5672 67.0567 24.1902 67.0567 23.9948C67.0567 23.548 66.9091 23.3246 66.614 23.3246C66.2115 23.3246 65.6749 23.7993 65.0042 24.7487C64.3603 25.6702 63.7164 26.8988 63.0725 28.4346C62.4285 29.9703 61.9054 31.5899 61.5029 33.2932C61.2078 34.6056 60.859 35.4991 60.4566 35.9738C60.0809 36.4206 59.4773 36.644 58.6455 36.644Z" fill="#4B69FF"/>
<path d="M80.904 36.644C79.321 36.644 77.9661 36.2391 76.8393 35.4293C75.7393 34.5916 74.9075 33.5026 74.3441 32.1623C73.7807 30.822 73.499 29.3839 73.499 27.8482C73.499 25.726 73.8746 23.8412 74.6258 22.1937C75.4039 20.5183 76.4503 19.2199 77.7649 18.2984C79.0796 17.349 80.5552 16.8743 82.1918 16.8743C83.7748 16.8743 85.1297 17.2932 86.2566 18.1309C87.3834 18.9407 88.2286 20.0157 88.792 21.356C89.3554 22.6963 89.6371 24.1344 89.6371 25.6702C89.6371 27.7923 89.2481 29.6911 88.47 31.3665C87.692 33.014 86.6322 34.3124 85.2907 35.2618C83.976 36.1832 82.5138 36.644 80.904 36.644ZM81.3467 32.1204C82.2589 32.1204 83.0236 31.6038 83.6406 30.5707C84.2846 29.5375 84.6065 28.0297 84.6065 26.0471C84.6065 24.5113 84.3382 23.3525 83.8016 22.5707C83.265 21.7888 82.6211 21.3979 81.8699 21.3979C80.904 21.3979 80.0991 21.9145 79.4552 22.9476C78.8381 23.9529 78.5296 25.4607 78.5296 27.4712C78.5296 29.0628 78.7979 30.2356 79.3345 30.9895C79.8711 31.7435 80.5418 32.1204 81.3467 32.1204Z" fill="#4B69FF"/>
<path d="M99.6276 37.5654C98.2324 37.5654 97.1592 37.2304 96.408 36.5602C95.6836 35.89 95.3214 35.1361 95.3214 34.2984C95.3214 33.5724 95.5763 32.9442 96.086 32.4136C96.5958 31.8831 97.347 31.6178 98.3397 31.6178C98.6885 31.6178 99.091 31.6597 99.5471 31.7435C100.03 31.7993 100.392 31.8412 100.634 31.8691C100.607 31.1431 100.446 30.459 100.151 29.8168C99.8824 29.1745 99.5337 28.5602 99.1044 27.9738C98.6751 27.3595 98.2727 26.829 97.897 26.3822C97.0653 28.0297 96.2336 29.3979 95.4019 30.4869C94.597 31.5759 93.7116 32.6091 92.7457 33.5864C92.2628 34.089 91.753 34.3403 91.2164 34.3403C90.7871 34.3403 90.4383 34.1867 90.1701 33.8796C89.9018 33.5445 89.7676 33.1396 89.7676 32.6649C89.7676 32.1065 89.9554 31.5899 90.331 31.1152L90.8542 30.445C92.3298 28.5462 93.4433 26.9825 94.1945 25.7539C94.6506 24.9442 95.1872 23.8691 95.8043 22.5288C96.4214 21.1606 97.0251 19.7504 97.6153 18.2984C98.1251 17.0698 99.1849 16.4555 100.795 16.4555C101.546 16.4555 102.069 16.5253 102.364 16.6649C102.659 16.8045 102.807 17.0279 102.807 17.3351C102.807 17.5026 102.753 17.7679 102.646 18.1309C102.539 18.4939 102.391 18.8569 102.203 19.2199C101.72 20.2251 101.479 21.0768 101.479 21.7749C101.479 22.1937 101.613 22.6544 101.881 23.1571C102.176 23.6597 102.619 24.288 103.209 25.0419C104.068 26.2147 104.712 27.2199 105.141 28.0576C105.597 28.8674 105.825 29.7609 105.825 30.7382C105.825 31.0174 105.798 31.4084 105.745 31.911C107.059 31.3805 108.602 29.9703 110.373 27.6806C110.695 27.2897 111.057 27.0942 111.46 27.0942C111.808 27.0942 112.077 27.2618 112.264 27.5969C112.479 27.9319 112.586 28.3927 112.586 28.9791C112.586 30.0401 112.331 30.9058 111.822 31.5759C110.48 33.3072 109.192 34.4939 107.958 35.1361C106.751 35.7504 105.248 36.0855 103.451 36.1414C102.378 37.0908 101.103 37.5654 99.6276 37.5654Z" fill="#4B69FF"/>
<path d="M116.802 37.5654C115.407 37.5654 114.334 37.2304 113.583 36.5602C112.858 35.89 112.496 35.1361 112.496 34.2984C112.496 33.5724 112.751 32.9442 113.261 32.4136C113.771 31.8831 114.522 31.6178 115.514 31.6178C115.863 31.6178 116.266 31.6597 116.722 31.7435C117.205 31.7993 117.567 31.8412 117.808 31.8691C117.782 31.1431 117.621 30.459 117.325 29.8168C117.057 29.1745 116.708 28.5602 116.279 27.9738C115.85 27.3595 115.447 26.829 115.072 26.3822C114.24 28.0297 113.408 29.3979 112.577 30.4869C111.772 31.5759 110.886 32.6091 109.92 33.5864C109.438 34.089 108.928 34.3403 108.391 34.3403C107.962 34.3403 107.613 34.1867 107.345 33.8796C107.077 33.5445 106.942 33.1396 106.942 32.6649C106.942 32.1065 107.13 31.5899 107.506 31.1152L108.029 30.445C109.505 28.5462 110.618 26.9825 111.369 25.7539C111.852 24.9442 112.335 23.9808 112.818 22.8639C113.328 21.7469 113.985 20.2251 114.79 18.2984C115.3 17.0698 116.36 16.4555 117.969 16.4555C118.721 16.4555 119.244 16.5253 119.539 16.6649C119.834 16.8045 119.982 17.0279 119.982 17.3351C119.982 17.5026 119.928 17.7679 119.821 18.1309C119.713 18.4939 119.566 18.8569 119.378 19.2199C118.895 20.2251 118.654 21.0768 118.654 21.7749C118.654 22.1937 118.788 22.6544 119.056 23.1571C119.351 23.6597 119.794 24.288 120.384 25.0419C121.243 26.2147 121.887 27.2199 122.316 28.0576C122.772 28.8674 123 29.7609 123 30.7382C123 31.911 122.732 33.0279 122.195 34.089C121.685 35.1222 120.961 35.9599 120.022 36.6021C119.083 37.2443 118.01 37.5654 116.802 37.5654Z" fill="#4B69FF"/>
</svg>
